<svg width="35" height="36" viewBox="0 0 35 36" fill="none" xmlns="http://www.w3.org/2000/svg">
<path d="M11.6667 4.69043C7.64604 4.69043 4.375 7.96147 4.375 11.9821V23.6488C4.375 27.6694 7.64604 30.9404 11.6667 30.9404H23.3333C27.354 30.9404 30.625 27.6694 30.625 23.6488V11.9821C30.625 7.96147 27.354 4.69043 23.3333 4.69043H11.6667ZM11.6667 7.6071H23.3333C25.7454 7.6071 27.7083 9.57001 27.7083 11.9821V23.6488C27.7083 26.0608 25.7454 28.0238 23.3333 28.0238H11.6667C9.25458 28.0238 7.29167 26.0608 7.29167 23.6488V11.9821C7.29167 9.57001 9.25458 7.6071 11.6667 7.6071ZM24.7917 9.06543C24.4049 9.06543 24.034 9.21908 23.7605 9.49257C23.487 9.76606 23.3333 10.137 23.3333 10.5238C23.3333 10.9105 23.487 11.2815 23.7605 11.555C24.034 11.8285 24.4049 11.9821 24.7917 11.9821C25.1784 11.9821 25.5494 11.8285 25.8229 11.555C26.0964 11.2815 26.25 10.9105 26.25 10.5238C26.25 10.137 26.0964 9.76606 25.8229 9.49257C25.5494 9.21908 25.1784 9.06543 24.7917 9.06543ZM17.5 10.5238C13.4794 10.5238 10.2083 13.7948 10.2083 17.8154C10.2083 21.8361 13.4794 25.1071 17.5 25.1071C21.5206 25.1071 24.7917 21.8361 24.7917 17.8154C24.7917 13.7948 21.5206 10.5238 17.5 10.5238ZM17.5 13.4404C19.9121 13.4404 21.875 15.4033 21.875 17.8154C21.875 20.2275 19.9121 22.1904 17.5 22.1904C15.0879 22.1904 13.125 20.2275 13.125 17.8154C13.125 15.4033 15.0879 13.4404 17.5 13.4404Z" fill="white"/>
</svg>
