<svg width="35" height="36" viewBox="0 0 35 36" fill="none" xmlns="http://www.w3.org/2000/svg">
<path d="M8.75 4.69043C6.35109 4.69043 4.375 6.66652 4.375 9.06543V26.5654C4.375 28.9643 6.35109 30.9404 8.75 30.9404H26.25C28.6489 30.9404 30.625 28.9643 30.625 26.5654V9.06543C30.625 6.66652 28.6489 4.69043 26.25 4.69043H8.75ZM8.75 7.6071H26.25C27.074 7.6071 27.7083 8.24143 27.7083 9.06543V26.5654C27.7083 27.3894 27.074 28.0238 26.25 28.0238H8.75C7.926 28.0238 7.29167 27.3894 7.29167 26.5654V9.06543C7.29167 8.24143 7.926 7.6071 8.75 7.6071ZM17.5 10.5238V20.7321C17.5 21.5561 16.8657 22.1904 16.0417 22.1904C15.2177 22.1904 14.5833 21.5561 14.5833 20.7321C14.5833 19.9081 15.2177 19.2738 16.0417 19.2738V16.3571C13.6428 16.3571 11.6667 18.3332 11.6667 20.7321C11.6667 23.131 13.6428 25.1071 16.0417 25.1071C18.4406 25.1071 20.4167 23.131 20.4167 20.7321V15.2377C21.3152 15.8778 22.2529 16.3571 23.3333 16.3571V13.4404C23.2643 13.4404 22.2581 13.121 21.556 12.509C20.8539 11.8971 20.4167 11.129 20.4167 10.5238H17.5Z" fill="white"/>
</svg>
