<svg width="483.969" viewBox="0 0 362.977 50.918" height="67.891" preserveAspectRatio="xMidYMid" version="1.2"
     xmlns="http://www.w3.org/2000/svg">
    <g transform="translate(-6.008 -94.445)">
        <path d="M187.496 94.445l7.192 18.371 19.695 1.164-15.246 12.52 4.976 19.09-16.617-10.63-16.621 10.63 4.977-19.09-15.247-12.52 19.696-1.164 7.195-18.37"
              fill="#fff"/>
    </g>
    <g transform="translate(-6.008 -94.445)">
        <path d="M110.195 94.445l7.196 18.371 19.691 1.164-15.246 12.52 4.977 19.09-16.618-10.63-16.62 10.63 4.976-19.09-15.246-12.52L103 112.816l7.195-18.37"
              fill="#fff"/>
    </g>
    <g transform="translate(-6.008 -94.445)">
        <path d="M342.098 94.445l7.191 18.371 19.695 1.164-15.246 12.52 4.977 19.09-16.617-10.63-16.621 10.63 4.976-19.09-15.246-12.52 19.695-1.164 7.196-18.37"
              fill="#fff"/>
    </g>
    <g transform="translate(-6.008 -94.445)">
        <path d="M264.793 94.445l7.2 18.371 19.69 1.164-15.245 12.52 4.976 19.09-16.621-10.63-16.617 10.63 4.976-19.09-15.246-12.52 19.696-1.164 7.191-18.37"
              fill="#fff"/>
    </g>
    <g transform="translate(-6.008 -94.445)">
        <path d="M32.895 94.445l7.195 18.371 19.691 1.164-15.246 12.52 4.977 19.09-16.617-10.63-16.622 10.63 4.977-19.09-15.246-12.52 19.695-1.164 7.196-18.37"
              fill="#fff"/>
    </g>
</svg>