<svg width="35" height="36" viewBox="0 0 35 36" fill="none" xmlns="http://www.w3.org/2000/svg">
<path d="M7.29167 4.69043C5.68021 4.69043 4.375 5.99564 4.375 7.6071V28.0238C4.375 29.6352 5.68021 30.9404 7.29167 30.9404H27.7083C29.3198 30.9404 30.625 29.6352 30.625 28.0238V7.6071C30.625 5.99564 29.3198 4.69043 27.7083 4.69043H7.29167ZM7.29167 7.6071H27.7083V28.0238H7.29167V7.6071ZM11.3448 9.52686C10.095 9.52686 9.3453 10.2781 9.3453 11.2786C9.3453 12.279 10.0951 13.0274 11.2195 13.0274C12.4693 13.0274 13.219 12.279 13.219 11.2786C13.219 10.2781 12.4692 9.52686 11.3448 9.52686ZM9.44499 14.8988V25.1071H13.125V14.8988H9.44499ZM16.1613 14.8988V25.1071H19.8413V19.5273C19.8413 17.8662 21.0264 17.6274 21.3822 17.6274C21.7381 17.6274 22.6896 17.9843 22.6896 19.5273V25.1071H26.25V19.5273C26.25 16.3233 24.8263 14.8988 23.0457 14.8988C21.265 14.8988 20.3153 15.4917 19.8413 16.3229V14.8988H16.1613Z" fill="white"/>
</svg>
